<svg width="428" height="282" viewBox="0 0 428 282" fill="none" xmlns="http://www.w3.org/2000/svg">
<path d="M316.53 179.47C338.965 201.904 353.289 230.933 357.615 262L70.3853 262C74.7114 230.933 89.0351 201.904 111.47 179.47C138.662 152.277 175.544 137 214 137C252.456 137 289.338 152.277 316.53 179.47Z" stroke="url(#paint0_linear_2277_14)" stroke-opacity="0.08" stroke-width="40"/>
<path d="M373.806 122.194C411.449 159.837 434.442 209.393 439.114 262L-11.1139 262C-6.44198 209.392 16.5506 159.837 54.1939 122.194C96.5771 79.8106 154.061 56 214 56C273.939 56 331.423 79.8106 373.806 122.194Z" stroke="url(#paint1_linear_2277_14)" stroke-opacity="0.06" stroke-width="40"/>
<path d="M488.392 168.343C500.761 198.204 508.155 229.841 510.326 262L-82.3259 262C-80.1554 229.841 -72.7609 198.204 -60.3922 168.343C-45.4666 132.309 -23.5897 99.5683 3.98927 71.9893C31.5683 44.4103 64.3093 22.5334 100.343 7.60778C136.377 -7.31786 174.997 -15 214 -15C253.003 -15 291.623 -7.31787 327.657 7.60777C363.691 22.5334 396.432 44.4103 424.011 71.9893C451.59 99.5683 473.467 132.309 488.392 168.343Z" stroke="url(#paint2_linear_2277_14)" stroke-opacity="0.04" stroke-width="40"/>
<defs>
<linearGradient id="paint0_linear_2277_14" x1="214" y1="22.4688" x2="214" y2="275" gradientUnits="userSpaceOnUse">
<stop stop-color="white"/>
<stop offset="1" stop-color="white" stop-opacity="0"/>
</linearGradient>
<linearGradient id="paint1_linear_2277_14" x1="214" y1="36" x2="214" y2="369.758" gradientUnits="userSpaceOnUse">
<stop stop-color="white"/>
<stop offset="1" stop-color="white" stop-opacity="0"/>
</linearGradient>
<linearGradient id="paint2_linear_2277_14" x1="214" y1="-115.508" x2="214" y2="255.2" gradientUnits="userSpaceOnUse">
<stop stop-color="white"/>
<stop offset="1" stop-color="white" stop-opacity="0"/>
</linearGradient>
</defs>
</svg>
